<svg xmlns="http://www.w3.org/2000/svg" viewBox="0 0 200 200">
  <defs>
    <radialGradient id="bg" cx="50%" cy="50%" r="50%">
      <stop offset="0%" stop-color="#ff6b35"/>
      <stop offset="100%" stop-color="#e94560"/>
    </radialGradient>
  </defs>
  <rect width="200" height="200" rx="40" fill="url(#bg)"/>
  <!-- Flame shape -->
  <path d="M100 170 C60 170 35 145 35 110 C35 85 50 70 60 55 C65 48 68 40 65 30 C80 45 82 60 78 72 C88 60 90 45 87 32 C105 50 108 70 100 85 C112 72 115 55 110 42 C130 60 140 85 135 108 C132 125 120 138 110 148 C118 140 122 128 120 118 C130 130 135 148 130 162 C120 168 110 170 100 170 Z" fill="white" opacity="0.92"/>
  <!-- Star sparkle top right -->
  <circle cx="148" cy="52" r="6" fill="white" opacity="0.85"/>
  <circle cx="160" cy="38" r="4" fill="white" opacity="0.6"/>
  <circle cx="162" cy="60" r="3" fill="white" opacity="0.5"/>
</svg>
